<?xml version="1.0" encoding="UTF-8"?>
<!DOCTYPE svg PUBLIC "-//W3C//DTD SVG 1.1//EN" "http://www.w3.org/Graphics/SVG/1.1/DTD/svg11.dtd">
<!-- Creator: CorelDRAW 2018 (64-Bit) -->
<svg xmlns="http://www.w3.org/2000/svg" xml:space="preserve" width="12.221mm" height="12.221mm" version="1.1" style="shape-rendering:geometricPrecision; text-rendering:geometricPrecision; image-rendering:optimizeQuality; fill-rule:evenodd; clip-rule:evenodd"
viewBox="0 0 1.8 1.8"
 xmlns:xlink="http://www.w3.org/1999/xlink">
 <defs>
  <style type="text/css">
   <![CDATA[
    .fil0 {fill:#21263F}
   ]]>
  </style>
 </defs>
 <g id="Layer_x0020_1">
  <metadata id="CorelCorpID_0Corel-Layer"/>
  <path class="fil0" d="M0.78 0.77l-0.07 0 0 0.13 0.07 0 0 0.4 0.18 0 0 -0.4 0.11 -0 0.01 -0.13 -0.12 -0c-0,-0.02 -0,-0.04 -0,-0.06 0,-0.02 -0,-0.04 0.01,-0.05 0.02,-0.02 0.09,-0.01 0.12,-0.01l-0 -0.13c-0.05,-0 -0.1,-0 -0.14,0 -0.08,0 -0.15,0.03 -0.16,0.12 -0.01,0.05 -0,0.09 -0,0.14zm0.12 -0.77c0.25,0 0.47,0.1 0.64,0.26 0.16,0.16 0.26,0.39 0.26,0.64 0,0.25 -0.1,0.47 -0.26,0.64 -0.16,0.16 -0.39,0.26 -0.64,0.26 -0.25,0 -0.47,-0.1 -0.64,-0.26 -0.16,-0.16 -0.26,-0.39 -0.26,-0.64 0,-0.25 0.1,-0.47 0.26,-0.64 0.16,-0.16 0.39,-0.26 0.64,-0.26zm0.58 0.32c-0.15,-0.15 -0.36,-0.24 -0.58,-0.24 -0.23,0 -0.43,0.09 -0.58,0.24 -0.15,0.15 -0.24,0.36 -0.24,0.58 0,0.23 0.09,0.43 0.24,0.58 0.15,0.15 0.36,0.24 0.58,0.24 0.23,0 0.43,-0.09 0.58,-0.24 0.15,-0.15 0.24,-0.36 0.24,-0.58 0,-0.23 -0.09,-0.43 -0.24,-0.58z"/>
 </g>
</svg>
