<?xml version="1.0" encoding="UTF-8"?>
<!DOCTYPE svg PUBLIC "-//W3C//DTD SVG 1.1//EN" "http://www.w3.org/Graphics/SVG/1.1/DTD/svg11.dtd">
<!-- Creator: CorelDRAW 2018 (64-Bit) -->
<svg xmlns="http://www.w3.org/2000/svg" xml:space="preserve" width="12.221mm" height="12.221mm" version="1.1" style="shape-rendering:geometricPrecision; text-rendering:geometricPrecision; image-rendering:optimizeQuality; fill-rule:evenodd; clip-rule:evenodd"
viewBox="0 0 1.81 1.81"
 xmlns:xlink="http://www.w3.org/1999/xlink">
 <defs>
  <style type="text/css">
   <![CDATA[
    .fil0 {fill:#21263F}
   ]]>
  </style>
 </defs>
 <g id="Layer_x0020_1">
  <metadata id="CorelCorpID_0Corel-Layer"/>
  <path class="fil0" d="M0.69 0.47c-0.05,0 -0.1,0.02 -0.14,0.06 -0.02,0.02 -0.03,0.02 -0.04,0.04 -0.02,0.03 -0.04,0.07 -0.05,0.12 -0,0.03 -0,0.17 -0,0.22 0,0.04 0,0.07 0,0.11 0,0.1 -0.01,0.16 0.06,0.24l0.01 0.01c0,0 0,0 0.01,0.01 0.01,0.01 0.04,0.03 0.06,0.04 0.07,0.04 0.11,0.03 0.19,0.03l0.22 0c0.07,0 0.13,0.01 0.19,-0.02 0.02,-0.01 0.03,-0.02 0.05,-0.03l0.01 -0.01c0.02,-0.02 0.04,-0.04 0.05,-0.06 0.04,-0.07 0.03,-0.11 0.03,-0.19l0 -0.22c0,-0.1 0.01,-0.16 -0.06,-0.24 -0.02,-0.02 -0.05,-0.05 -0.07,-0.06 -0.03,-0.01 -0.05,-0.02 -0.08,-0.03 -0.03,-0 -0.17,-0 -0.22,-0 -0.04,0 -0.07,0 -0.11,0 -0.03,0 -0.07,-0 -0.11,0zm0.01 0.08c-0.04,0 -0.06,0.02 -0.09,0.04l-0.02 0.02c-0.03,0.05 -0.03,0.08 -0.03,0.14l0 0.26c0,0.06 -0.01,0.11 0.03,0.17 0.01,0.01 0.02,0.02 0.03,0.03 0.05,0.03 0.08,0.03 0.14,0.03 0.03,0 0.33,0 0.35,-0 0.03,-0 0.06,-0.01 0.08,-0.03l0.02 -0.02c0.05,-0.05 0.04,-0.09 0.04,-0.15l0 -0.26c0,-0.06 0.01,-0.1 -0.02,-0.15 -0.01,-0.01 -0.01,-0.01 -0.02,-0.03 -0,-0 -0.01,-0.01 -0.01,-0.01 -0,-0 -0.01,-0.01 -0.01,-0.01 -0.05,-0.03 -0.07,-0.03 -0.14,-0.03 -0.09,0 -0.18,0 -0.26,0 -0.03,0 -0.06,-0 -0.09,0zm0.18 0.12c-0.05,0.01 -0.1,0.03 -0.13,0.06 -0.05,0.05 -0.07,0.12 -0.07,0.19 0.01,0.12 0.12,0.21 0.25,0.2 0.19,-0.02 0.28,-0.26 0.12,-0.4 -0.02,-0.02 -0.05,-0.03 -0.07,-0.04 -0.03,-0.01 -0.06,-0.02 -0.1,-0.01zm0.01 0.08c-0.07,0.01 -0.13,0.08 -0.12,0.16 0.01,0.07 0.08,0.13 0.16,0.12 0.07,-0.01 0.13,-0.08 0.12,-0.16 -0.01,-0.07 -0.08,-0.13 -0.16,-0.12zm0.24 -0.14c-0.03,0 -0.05,0.03 -0.04,0.06 0,0.03 0.03,0.05 0.06,0.04 0.03,-0 0.05,-0.03 0.04,-0.06 -0,-0.03 -0.03,-0.05 -0.06,-0.04zm-0.22 -0.62c0.25,0 0.48,0.1 0.64,0.26 0.16,0.16 0.26,0.39 0.26,0.64 0,0.25 -0.1,0.48 -0.26,0.64 -0.16,0.16 -0.39,0.26 -0.64,0.26 -0.25,0 -0.48,-0.1 -0.64,-0.26 -0.16,-0.16 -0.26,-0.39 -0.26,-0.64 0,-0.25 0.1,-0.48 0.26,-0.64 0.16,-0.16 0.39,-0.26 0.64,-0.26zm0.59 0.32c-0.15,-0.15 -0.36,-0.24 -0.59,-0.24 -0.23,0 -0.44,0.09 -0.59,0.24 -0.15,0.15 -0.24,0.36 -0.24,0.59 0,0.23 0.09,0.44 0.24,0.59 0.15,0.15 0.36,0.24 0.59,0.24 0.23,0 0.44,-0.09 0.59,-0.24 0.15,-0.15 0.24,-0.36 0.24,-0.59 0,-0.23 -0.09,-0.44 -0.24,-0.59z"/>
 </g>
</svg>
