<?xml version="1.0" encoding="UTF-8"?>
<!DOCTYPE svg PUBLIC "-//W3C//DTD SVG 1.1//EN" "http://www.w3.org/Graphics/SVG/1.1/DTD/svg11.dtd">
<!-- Creator: CorelDRAW 2018 (64-Bit) -->
<svg xmlns="http://www.w3.org/2000/svg" xml:space="preserve" width="65.0653mm" height="3.8748mm" version="1.1" style="shape-rendering:geometricPrecision; text-rendering:geometricPrecision; image-rendering:optimizeQuality; fill-rule:evenodd; clip-rule:evenodd"
viewBox="0 0 478.66 28.51"
 xmlns:xlink="http://www.w3.org/1999/xlink">
 <defs>
  <style type="text/css">
   <![CDATA[
    .fil0 {fill:#2B2A29;fill-rule:nonzero}
   ]]>
  </style>
 </defs>
 <g id="Layer_x0020_1">
  <metadata id="CorelCorpID_0Corel-Layer"/>
  <path class="fil0" d="M22.7 25.95c-0.67,0.29 -1.29,0.56 -1.83,0.82 -0.55,0.26 -1.26,0.53 -2.14,0.81 -0.75,0.23 -1.56,0.43 -2.44,0.6 -0.88,0.17 -1.84,0.25 -2.89,0.25 -1.99,0 -3.79,-0.28 -5.41,-0.83 -1.63,-0.56 -3.04,-1.43 -4.24,-2.62 -1.18,-1.16 -2.09,-2.64 -2.76,-4.44 -0.66,-1.79 -0.99,-3.88 -0.99,-6.26 0,-2.25 0.32,-4.27 0.95,-6.04 0.64,-1.78 1.56,-3.28 2.76,-4.5 1.16,-1.19 2.57,-2.1 4.22,-2.72 1.65,-0.62 3.48,-0.93 5.49,-0.93 1.47,0 2.94,0.18 4.4,0.53 1.47,0.36 3.09,0.98 4.88,1.88l0 4.32 -0.28 0c-1.51,-1.26 -3,-2.18 -4.49,-2.75 -1.48,-0.58 -3.07,-0.87 -4.76,-0.87 -1.39,0 -2.63,0.23 -3.74,0.67 -1.11,0.45 -2.1,1.14 -2.97,2.08 -0.85,0.92 -1.51,2.08 -1.98,3.49 -0.47,1.4 -0.71,3.02 -0.71,4.85 0,1.93 0.26,3.58 0.78,4.96 0.52,1.39 1.19,2.52 2.01,3.38 0.86,0.91 1.86,1.58 3,2.01 1.15,0.43 2.36,0.65 3.63,0.65 1.75,0 3.39,-0.3 4.93,-0.9 1.53,-0.6 2.96,-1.5 4.3,-2.7l0.26 0 0 4.27zm25.54 -22.24c1.12,1.22 1.97,2.72 2.57,4.51 0.6,1.78 0.89,3.79 0.89,6.04 0,2.26 -0.3,4.28 -0.91,6.06 -0.61,1.78 -1.46,3.27 -2.55,4.45 -1.13,1.24 -2.46,2.17 -4,2.8 -1.54,0.62 -3.29,0.94 -5.26,0.94 -1.93,0 -3.68,-0.32 -5.25,-0.95 -1.57,-0.64 -2.91,-1.56 -4.01,-2.78 -1.1,-1.21 -1.95,-2.7 -2.55,-4.47 -0.6,-1.76 -0.89,-3.78 -0.89,-6.05 0,-2.23 0.29,-4.23 0.88,-6 0.58,-1.77 1.44,-3.29 2.57,-4.55 1.08,-1.2 2.42,-2.12 4.01,-2.76 1.6,-0.63 3.34,-0.95 5.23,-0.95 1.96,0 3.72,0.32 5.28,0.97 1.56,0.64 2.89,1.56 3.98,2.75zm-0.33 10.55c0,-3.55 -0.8,-6.29 -2.39,-8.22 -1.59,-1.93 -3.76,-2.89 -6.52,-2.89 -2.78,0 -4.96,0.97 -6.55,2.89 -1.59,1.93 -2.38,4.67 -2.38,8.22 0,3.6 0.81,6.34 2.43,8.24 1.61,1.91 3.78,2.86 6.5,2.86 2.72,0 4.89,-0.95 6.5,-2.86 1.61,-1.9 2.42,-4.65 2.42,-8.24zm30.44 13.68l-4.5 0 -12.97 -24.48 0 24.48 -3.4 0 0 -27.36 5.64 0 11.84 22.34 0 -22.34 3.4 0 0 27.36zm28.41 -1.98c-0.67,0.29 -1.29,0.56 -1.83,0.82 -0.55,0.26 -1.26,0.53 -2.14,0.81 -0.75,0.23 -1.56,0.43 -2.44,0.6 -0.88,0.17 -1.84,0.25 -2.89,0.25 -1.99,0 -3.79,-0.28 -5.41,-0.83 -1.63,-0.56 -3.04,-1.43 -4.24,-2.62 -1.18,-1.16 -2.09,-2.64 -2.76,-4.44 -0.66,-1.79 -0.99,-3.88 -0.99,-6.26 0,-2.25 0.32,-4.27 0.95,-6.04 0.64,-1.78 1.56,-3.28 2.76,-4.5 1.16,-1.19 2.57,-2.1 4.22,-2.72 1.65,-0.62 3.48,-0.93 5.49,-0.93 1.47,0 2.94,0.18 4.4,0.53 1.47,0.36 3.09,0.98 4.88,1.88l0 4.32 -0.28 0c-1.51,-1.26 -3,-2.18 -4.49,-2.75 -1.48,-0.58 -3.07,-0.87 -4.76,-0.87 -1.39,0 -2.63,0.23 -3.74,0.67 -1.11,0.45 -2.1,1.14 -2.97,2.08 -0.85,0.92 -1.51,2.08 -1.98,3.49 -0.47,1.4 -0.71,3.02 -0.71,4.85 0,1.93 0.26,3.58 0.78,4.96 0.52,1.39 1.19,2.52 2.01,3.38 0.86,0.91 1.86,1.58 3,2.01 1.15,0.43 2.36,0.65 3.63,0.65 1.75,0 3.39,-0.3 4.93,-0.9 1.53,-0.6 2.96,-1.5 4.3,-2.7l0.26 0 0 4.27zm23.17 1.98l-18.03 0 0 -27.36 18.03 0 0 3.24 -14.39 0 0 7.5 14.39 0 0 3.24 -14.39 0 0 10.16 14.39 0 0 3.24zm23.67 -19.1c0,1.22 -0.21,2.34 -0.63,3.37 -0.42,1.04 -1.02,1.93 -1.78,2.69 -0.94,0.94 -2.06,1.65 -3.34,2.12 -1.29,0.47 -2.91,0.71 -4.87,0.71l-3.64 0 0 10.2 -3.64 0 0 -27.36 7.42 0c1.64,0 3.04,0.14 4.17,0.41 1.14,0.28 2.15,0.71 3.04,1.29 1.04,0.7 1.85,1.57 2.42,2.61 0.57,1.04 0.85,2.36 0.85,3.95zm-3.79 0.09c0,-0.95 -0.16,-1.76 -0.5,-2.47 -0.33,-0.7 -0.83,-1.27 -1.51,-1.71 -0.59,-0.38 -1.26,-0.65 -2.01,-0.82 -0.75,-0.17 -1.71,-0.25 -2.86,-0.25l-3.6 0 0 10.93 3.07 0c1.47,0 2.67,-0.13 3.58,-0.4 0.92,-0.26 1.66,-0.68 2.24,-1.26 0.58,-0.58 0.98,-1.2 1.22,-1.86 0.24,-0.65 0.36,-1.37 0.36,-2.18zm28.11 -5.13l-9.78 0 0 24.13 -3.64 0 0 -24.13 -9.78 0 0 -3.24 23.2 0 0 3.24zm29.35 10.47c0,2.55 -0.58,4.83 -1.75,6.85 -1.16,2.01 -2.64,3.56 -4.41,4.64 -1.34,0.81 -2.8,1.37 -4.39,1.69 -1.59,0.32 -3.48,0.48 -5.66,0.48l-9.65 0 0 -27.36 9.92 0c2.23,0 4.15,0.18 5.77,0.56 1.61,0.38 2.97,0.9 4.08,1.59 1.89,1.15 3.38,2.71 4.45,4.66 1.09,1.96 1.63,4.25 1.63,6.9zm-7.3 -0.06c0,-1.8 -0.33,-3.34 -0.99,-4.62 -0.66,-1.28 -1.69,-2.28 -3.12,-3.01 -0.72,-0.36 -1.46,-0.6 -2.21,-0.73 -0.75,-0.13 -1.89,-0.19 -3.41,-0.19l-1.78 0 0 17.13 1.78 0c1.68,0 2.91,-0.08 3.7,-0.23 0.78,-0.15 1.55,-0.43 2.3,-0.83 1.29,-0.74 2.23,-1.72 2.83,-2.95 0.6,-1.23 0.9,-2.75 0.9,-4.57zm32.47 13.71l-19.79 0 0 -27.36 19.79 0 0 5.29 -12.77 0 0 4.72 11.85 0 0 5.3 -11.85 0 0 6.76 12.77 0 0 5.29zm27.83 -8.6c0,2.7 -1.14,4.89 -3.43,6.57 -2.28,1.69 -5.38,2.53 -9.3,2.53 -2.27,0 -4.25,-0.2 -5.93,-0.6 -1.69,-0.4 -3.26,-0.9 -4.74,-1.52l0 -6.56 0.77 0c1.46,1.17 3.09,2.06 4.9,2.69 1.81,0.63 3.54,0.94 5.21,0.94 0.43,0 0.99,-0.03 1.69,-0.11 0.7,-0.08 1.27,-0.2 1.71,-0.37 0.54,-0.22 0.98,-0.5 1.33,-0.83 0.35,-0.33 0.53,-0.82 0.53,-1.47 0,-0.6 -0.26,-1.12 -0.77,-1.56 -0.51,-0.43 -1.25,-0.77 -2.23,-1 -1.03,-0.24 -2.11,-0.48 -3.26,-0.69 -1.15,-0.21 -2.22,-0.49 -3.22,-0.82 -2.3,-0.75 -3.96,-1.76 -4.98,-3.04 -1.01,-1.28 -1.51,-2.87 -1.51,-4.77 0,-2.55 1.14,-4.62 3.43,-6.24 2.28,-1.61 5.22,-2.42 8.81,-2.42 1.8,0 3.58,0.17 5.34,0.52 1.76,0.35 3.28,0.79 4.57,1.32l0 6.3 -0.75 0c-1.1,-0.88 -2.45,-1.62 -4.05,-2.22 -1.6,-0.59 -3.23,-0.89 -4.9,-0.89 -0.59,0 -1.17,0.04 -1.76,0.12 -0.58,0.08 -1.14,0.23 -1.68,0.45 -0.48,0.18 -0.88,0.46 -1.23,0.83 -0.35,0.38 -0.51,0.8 -0.51,1.28 0,0.72 0.28,1.28 0.83,1.66 0.55,0.39 1.59,0.74 3.12,1.06 1,0.21 1.97,0.41 2.89,0.6 0.93,0.2 1.92,0.47 2.99,0.81 2.1,0.69 3.64,1.62 4.64,2.8 1,1.18 1.5,2.72 1.5,4.6zm19.63 8.6l-16.03 0 0 -4.85 4.48 0 0 -17.67 -4.48 0 0 -4.85 16.03 0 0 4.85 -4.49 0 0 17.67 4.49 0 0 4.85zm29.95 -1.56c-1.22,0.48 -2.85,0.95 -4.87,1.42 -2.03,0.47 -4.04,0.71 -6.05,0.71 -4.66,0 -8.3,-1.27 -10.93,-3.8 -2.64,-2.53 -3.95,-6.03 -3.95,-10.49 0,-4.25 1.33,-7.68 3.99,-10.28 2.65,-2.6 6.36,-3.9 11.12,-3.9 1.8,0 3.52,0.16 5.14,0.48 1.63,0.33 3.44,0.97 5.44,1.94l0 6.42 -0.79 0c-0.34,-0.26 -0.84,-0.62 -1.51,-1.09 -0.66,-0.48 -1.3,-0.88 -1.91,-1.21 -0.72,-0.39 -1.54,-0.73 -2.49,-1.01 -0.95,-0.28 -1.96,-0.43 -3.02,-0.43 -1.25,0 -2.38,0.18 -3.4,0.55 -1.02,0.37 -1.93,0.93 -2.74,1.69 -0.77,0.73 -1.38,1.67 -1.83,2.8 -0.45,1.14 -0.67,2.45 -0.67,3.93 0,3.02 0.8,5.34 2.4,6.95 1.61,1.61 3.98,2.41 7.11,2.41 0.27,0 0.57,-0.01 0.89,-0.02 0.33,-0.01 0.63,-0.03 0.89,-0.06l0 -5.36 -5.46 0 0 -5.16 12.63 0 0 13.51zm31.2 1.56l-6.8 0 -11.61 -18.78 0 18.78 -6.47 0 0 -27.36 8.43 0 9.98 15.68 0 -15.68 6.47 0 0 27.36zm29.99 -2.02c-1.49,0.68 -3.12,1.28 -4.9,1.79 -1.77,0.51 -3.48,0.77 -5.13,0.77 -2.13,0 -4.09,-0.3 -5.87,-0.88 -1.78,-0.58 -3.29,-1.47 -4.54,-2.64 -1.26,-1.19 -2.24,-2.68 -2.92,-4.46 -0.68,-1.78 -1.03,-3.86 -1.03,-6.25 0,-4.38 1.28,-7.83 3.83,-10.36 2.55,-2.53 6.06,-3.79 10.52,-3.79 1.56,0 3.14,0.19 4.77,0.56 1.62,0.38 3.37,1.01 5.24,1.91l0 4.32 -0.33 0c-0.38,-0.29 -0.93,-0.68 -1.65,-1.16 -0.72,-0.48 -1.44,-0.87 -2.13,-1.19 -0.85,-0.38 -1.8,-0.7 -2.87,-0.95 -1.07,-0.25 -2.29,-0.38 -3.65,-0.38 -3.06,0 -5.48,0.99 -7.27,2.95 -1.78,1.97 -2.67,4.63 -2.67,7.98 0,3.54 0.93,6.29 2.79,8.26 1.86,1.96 4.4,2.95 7.61,2.95 1.17,0 2.35,-0.12 3.51,-0.35 1.17,-0.23 2.2,-0.53 3.08,-0.9l0 -6.71 -7.33 0 0 -3.2 10.93 0 0 11.74zm29 2.02l-4.72 0 -9.17 -10.88 -5.11 0 0 10.88 -3.64 0 0 -27.36 7.67 0c1.65,0 3.03,0.11 4.13,0.32 1.1,0.21 2.1,0.6 2.97,1.15 0.99,0.63 1.77,1.41 2.33,2.37 0.56,0.95 0.83,2.15 0.83,3.61 0,1.97 -0.5,3.62 -1.49,4.95 -0.99,1.33 -2.36,2.33 -4.1,3l10.29 11.96zm-8.51 -19.66c0,-0.78 -0.14,-1.48 -0.41,-2.09 -0.28,-0.61 -0.73,-1.12 -1.37,-1.54 -0.53,-0.35 -1.15,-0.6 -1.88,-0.74 -0.72,-0.15 -1.58,-0.21 -2.55,-0.21l-4.29 0 0 10.33 3.68 0c1.15,0 2.16,-0.1 3.02,-0.3 0.85,-0.21 1.58,-0.58 2.18,-1.14 0.55,-0.51 0.96,-1.1 1.22,-1.77 0.26,-0.67 0.4,-1.52 0.4,-2.55zm32.44 -4.56c1.12,1.22 1.97,2.72 2.57,4.51 0.6,1.78 0.89,3.79 0.89,6.04 0,2.26 -0.3,4.28 -0.91,6.06 -0.61,1.78 -1.46,3.27 -2.55,4.45 -1.13,1.24 -2.46,2.17 -4,2.8 -1.54,0.62 -3.29,0.94 -5.26,0.94 -1.93,0 -3.68,-0.32 -5.25,-0.95 -1.58,-0.64 -2.91,-1.56 -4.02,-2.78 -1.1,-1.21 -1.95,-2.7 -2.55,-4.47 -0.6,-1.76 -0.89,-3.78 -0.89,-6.05 0,-2.23 0.3,-4.23 0.88,-6 0.58,-1.77 1.44,-3.29 2.57,-4.55 1.08,-1.2 2.42,-2.12 4.02,-2.76 1.6,-0.63 3.34,-0.95 5.23,-0.95 1.96,0 3.72,0.32 5.28,0.97 1.56,0.64 2.89,1.56 3.98,2.75zm-0.33 10.55c0,-3.55 -0.8,-6.29 -2.39,-8.22 -1.59,-1.93 -3.76,-2.89 -6.52,-2.89 -2.78,0 -4.96,0.97 -6.55,2.89 -1.59,1.93 -2.38,4.67 -2.38,8.22 0,3.6 0.81,6.34 2.43,8.24 1.61,1.91 3.78,2.86 6.5,2.86 2.72,0 4.89,-0.95 6.5,-2.86 1.61,-1.9 2.42,-4.65 2.42,-8.24zm30.17 2.69c0,1.99 -0.22,3.72 -0.65,5.19 -0.43,1.47 -1.15,2.7 -2.14,3.68 -0.95,0.94 -2.05,1.61 -3.31,2.04 -1.26,0.43 -2.74,0.65 -4.41,0.65 -1.72,0 -3.21,-0.23 -4.49,-0.68 -1.27,-0.46 -2.35,-1.12 -3.21,-2.01 -1,-1 -1.71,-2.21 -2.14,-3.64 -0.43,-1.42 -0.65,-3.17 -0.65,-5.24l0 -16.37 3.64 0 0 16.56c0,1.48 0.1,2.65 0.3,3.51 0.21,0.86 0.55,1.64 1.02,2.33 0.54,0.8 1.27,1.4 2.2,1.8 0.93,0.41 2.04,0.61 3.34,0.61 1.31,0 2.43,-0.2 3.34,-0.6 0.92,-0.4 1.66,-1 2.21,-1.81 0.48,-0.7 0.82,-1.5 1.02,-2.4 0.2,-0.9 0.3,-2.02 0.3,-3.36l0 -16.65 3.64 0 0 16.37zm24.84 -8.1c0,1.22 -0.21,2.34 -0.63,3.37 -0.42,1.04 -1.02,1.93 -1.78,2.69 -0.94,0.94 -2.06,1.65 -3.34,2.12 -1.29,0.47 -2.91,0.71 -4.87,0.71l-3.64 0 0 10.2 -3.64 0 0 -27.36 7.42 0c1.64,0 3.04,0.14 4.17,0.41 1.14,0.28 2.15,0.71 3.04,1.29 1.04,0.7 1.85,1.57 2.42,2.61 0.57,1.04 0.85,2.36 0.85,3.95zm-3.79 0.09c0,-0.95 -0.16,-1.76 -0.5,-2.47 -0.33,-0.7 -0.83,-1.27 -1.51,-1.71 -0.59,-0.38 -1.26,-0.65 -2.01,-0.82 -0.75,-0.17 -1.71,-0.25 -2.86,-0.25l-3.6 0 0 10.93 3.07 0c1.47,0 2.67,-0.13 3.58,-0.4 0.92,-0.26 1.66,-0.68 2.24,-1.26 0.58,-0.58 0.99,-1.2 1.22,-1.86 0.24,-0.65 0.36,-1.37 0.36,-2.18z"/>
 </g>
</svg>
