<?xml version="1.0" encoding="UTF-8"?>
<!DOCTYPE svg PUBLIC "-//W3C//DTD SVG 1.1//EN" "http://www.w3.org/Graphics/SVG/1.1/DTD/svg11.dtd">
<!-- Creator: CorelDRAW 2018 (64-Bit) -->
<svg xmlns="http://www.w3.org/2000/svg" xml:space="preserve" width="65.0653mm" height="3.8748mm" version="1.1" style="shape-rendering:geometricPrecision; text-rendering:geometricPrecision; image-rendering:optimizeQuality; fill-rule:evenodd; clip-rule:evenodd"
viewBox="0 0 167.76 9.99"
 xmlns:xlink="http://www.w3.org/1999/xlink">
 <defs>
  <style type="text/css">
   <![CDATA[
    .fil0 {fill:#FEFEFE;fill-rule:nonzero}
   ]]>
  </style>
 </defs>
 <g id="Layer_x0020_1">
  <metadata id="CorelCorpID_0Corel-Layer"/>
  <path class="fil0" d="M7.95 9.1c-0.24,0.1 -0.45,0.2 -0.64,0.29 -0.19,0.09 -0.44,0.18 -0.75,0.28 -0.26,0.08 -0.55,0.15 -0.85,0.21 -0.31,0.06 -0.64,0.09 -1.01,0.09 -0.7,0 -1.33,-0.1 -1.9,-0.29 -0.57,-0.2 -1.06,-0.5 -1.48,-0.92 -0.41,-0.41 -0.73,-0.93 -0.97,-1.55 -0.23,-0.63 -0.35,-1.36 -0.35,-2.19 0,-0.79 0.11,-1.49 0.33,-2.12 0.22,-0.62 0.55,-1.15 0.97,-1.58 0.41,-0.42 0.9,-0.73 1.48,-0.95 0.58,-0.22 1.22,-0.33 1.92,-0.33 0.51,0 1.03,0.06 1.54,0.19 0.51,0.13 1.08,0.34 1.71,0.66l0 1.51 -0.1 0c-0.53,-0.44 -1.05,-0.76 -1.57,-0.97 -0.52,-0.2 -1.07,-0.3 -1.67,-0.3 -0.49,0 -0.92,0.08 -1.31,0.24 -0.39,0.16 -0.74,0.4 -1.04,0.73 -0.3,0.32 -0.53,0.73 -0.69,1.22 -0.17,0.49 -0.25,1.06 -0.25,1.7 0,0.67 0.09,1.26 0.27,1.74 0.18,0.49 0.42,0.88 0.71,1.18 0.3,0.32 0.65,0.55 1.05,0.71 0.4,0.15 0.83,0.23 1.27,0.23 0.61,0 1.19,-0.11 1.73,-0.32 0.54,-0.21 1.04,-0.53 1.51,-0.95l0.09 0 0 1.5zm8.95 -7.79c0.39,0.43 0.69,0.95 0.9,1.58 0.21,0.62 0.31,1.33 0.31,2.12 0,0.79 -0.11,1.5 -0.32,2.12 -0.21,0.62 -0.51,1.15 -0.89,1.56 -0.4,0.44 -0.86,0.76 -1.4,0.98 -0.54,0.22 -1.15,0.33 -1.84,0.33 -0.67,0 -1.29,-0.11 -1.84,-0.33 -0.55,-0.22 -1.02,-0.55 -1.41,-0.97 -0.39,-0.42 -0.68,-0.95 -0.89,-1.57 -0.21,-0.62 -0.31,-1.32 -0.31,-2.12 0,-0.78 0.1,-1.48 0.31,-2.1 0.2,-0.62 0.51,-1.15 0.9,-1.59 0.38,-0.42 0.85,-0.74 1.41,-0.97 0.56,-0.22 1.17,-0.33 1.83,-0.33 0.69,0 1.3,0.11 1.85,0.34 0.55,0.22 1.01,0.55 1.39,0.96zm-0.12 3.7c0,-1.24 -0.28,-2.2 -0.84,-2.88 -0.56,-0.67 -1.32,-1.01 -2.29,-1.01 -0.97,0 -1.74,0.34 -2.3,1.01 -0.56,0.68 -0.83,1.64 -0.83,2.88 0,1.26 0.28,2.22 0.85,2.89 0.56,0.67 1.33,1 2.28,1 0.95,0 1.71,-0.33 2.28,-1 0.57,-0.67 0.85,-1.63 0.85,-2.89zm10.67 4.79l-1.58 0 -4.55 -8.58 0 8.58 -1.19 0 0 -9.59 1.98 0 4.15 7.83 0 -7.83 1.19 0 0 9.59zm9.96 -0.69c-0.24,0.1 -0.45,0.2 -0.64,0.29 -0.19,0.09 -0.44,0.18 -0.75,0.28 -0.26,0.08 -0.55,0.15 -0.85,0.21 -0.31,0.06 -0.64,0.09 -1.01,0.09 -0.7,0 -1.33,-0.1 -1.9,-0.29 -0.57,-0.2 -1.06,-0.5 -1.48,-0.92 -0.41,-0.41 -0.73,-0.93 -0.97,-1.55 -0.23,-0.63 -0.35,-1.36 -0.35,-2.19 0,-0.79 0.11,-1.49 0.33,-2.12 0.22,-0.62 0.55,-1.15 0.97,-1.58 0.41,-0.42 0.9,-0.73 1.48,-0.95 0.58,-0.22 1.22,-0.33 1.92,-0.33 0.51,0 1.03,0.06 1.54,0.19 0.51,0.13 1.08,0.34 1.71,0.66l0 1.51 -0.1 0c-0.53,-0.44 -1.05,-0.76 -1.57,-0.97 -0.52,-0.2 -1.08,-0.3 -1.67,-0.3 -0.49,0 -0.92,0.08 -1.31,0.24 -0.39,0.16 -0.74,0.4 -1.04,0.73 -0.3,0.32 -0.53,0.73 -0.69,1.22 -0.16,0.49 -0.25,1.06 -0.25,1.7 0,0.67 0.09,1.26 0.27,1.74 0.18,0.49 0.42,0.88 0.71,1.18 0.3,0.32 0.65,0.55 1.05,0.71 0.4,0.15 0.83,0.23 1.27,0.23 0.61,0 1.19,-0.11 1.73,-0.32 0.54,-0.21 1.04,-0.53 1.51,-0.95l0.09 0 0 1.5zm8.12 0.69l-6.32 0 0 -9.59 6.32 0 0 1.13 -5.04 0 0 2.63 5.04 0 0 1.13 -5.04 0 0 3.56 5.04 0 0 1.13zm8.3 -6.69c0,0.43 -0.07,0.82 -0.22,1.18 -0.15,0.36 -0.36,0.68 -0.62,0.94 -0.33,0.33 -0.72,0.58 -1.17,0.74 -0.45,0.17 -1.02,0.25 -1.71,0.25l-1.28 0 0 3.58 -1.27 0 0 -9.59 2.6 0c0.58,0 1.06,0.05 1.46,0.15 0.4,0.1 0.75,0.25 1.06,0.45 0.37,0.25 0.65,0.55 0.85,0.91 0.2,0.36 0.3,0.83 0.3,1.39zm-1.33 0.03c0,-0.33 -0.06,-0.62 -0.17,-0.86 -0.12,-0.24 -0.29,-0.44 -0.53,-0.6 -0.21,-0.13 -0.44,-0.23 -0.71,-0.29 -0.26,-0.06 -0.6,-0.09 -1,-0.09l-1.26 0 0 3.83 1.08 0c0.51,0 0.93,-0.05 1.26,-0.14 0.32,-0.09 0.58,-0.24 0.79,-0.44 0.2,-0.2 0.34,-0.42 0.43,-0.65 0.08,-0.23 0.13,-0.48 0.13,-0.77zm9.85 -1.8l-3.43 0 0 8.46 -1.28 0 0 -8.46 -3.43 0 0 -1.13 8.13 0 0 1.13zm10.29 3.67c0,0.89 -0.2,1.69 -0.61,2.4 -0.41,0.71 -0.92,1.25 -1.55,1.62 -0.47,0.28 -0.98,0.48 -1.54,0.59 -0.56,0.11 -1.22,0.17 -1.98,0.17l-3.38 0 0 -9.59 3.48 0c0.78,0 1.46,0.06 2.02,0.2 0.56,0.13 1.04,0.32 1.43,0.56 0.66,0.4 1.18,0.95 1.56,1.63 0.38,0.69 0.57,1.49 0.57,2.42zm-2.56 -0.02c0,-0.63 -0.12,-1.17 -0.35,-1.62 -0.23,-0.45 -0.59,-0.8 -1.09,-1.05 -0.25,-0.13 -0.51,-0.21 -0.78,-0.25 -0.26,-0.05 -0.66,-0.07 -1.19,-0.07l-0.62 0 0 6 0.62 0c0.59,0 1.02,-0.03 1.3,-0.08 0.27,-0.05 0.54,-0.15 0.8,-0.29 0.45,-0.26 0.78,-0.6 0.99,-1.04 0.21,-0.43 0.32,-0.96 0.32,-1.6zm11.38 4.81l-6.94 0 0 -9.59 6.94 0 0 1.85 -4.48 0 0 1.66 4.15 0 0 1.86 -4.15 0 0 2.37 4.48 0 0 1.86zm9.75 -3.01c0,0.95 -0.4,1.71 -1.2,2.3 -0.8,0.59 -1.89,0.89 -3.26,0.89 -0.8,0 -1.49,-0.07 -2.08,-0.21 -0.59,-0.14 -1.14,-0.32 -1.66,-0.53l0 -2.3 0.27 0c0.51,0.41 1.08,0.72 1.72,0.94 0.63,0.22 1.24,0.33 1.83,0.33 0.15,0 0.35,-0.01 0.59,-0.04 0.25,-0.03 0.44,-0.07 0.6,-0.13 0.19,-0.08 0.34,-0.17 0.47,-0.29 0.12,-0.11 0.18,-0.29 0.18,-0.51 0,-0.21 -0.09,-0.39 -0.27,-0.55 -0.18,-0.15 -0.44,-0.27 -0.78,-0.35 -0.36,-0.09 -0.74,-0.17 -1.14,-0.24 -0.4,-0.07 -0.78,-0.17 -1.13,-0.29 -0.81,-0.26 -1.39,-0.62 -1.74,-1.07 -0.35,-0.45 -0.53,-1.01 -0.53,-1.67 0,-0.89 0.4,-1.62 1.2,-2.19 0.8,-0.56 1.83,-0.85 3.09,-0.85 0.63,0 1.26,0.06 1.87,0.18 0.62,0.12 1.15,0.28 1.6,0.46l0 2.21 -0.26 0c-0.39,-0.31 -0.86,-0.57 -1.42,-0.78 -0.56,-0.21 -1.13,-0.31 -1.72,-0.31 -0.21,0 -0.41,0.02 -0.62,0.04 -0.2,0.03 -0.4,0.08 -0.59,0.16 -0.17,0.06 -0.31,0.16 -0.43,0.29 -0.12,0.13 -0.18,0.28 -0.18,0.45 0,0.25 0.1,0.45 0.29,0.58 0.19,0.14 0.56,0.26 1.09,0.37 0.35,0.07 0.69,0.14 1.01,0.21 0.33,0.07 0.67,0.16 1.05,0.28 0.73,0.24 1.28,0.57 1.63,0.98 0.35,0.41 0.53,0.95 0.53,1.61zm6.88 3.01l-5.62 0 0 -1.7 1.57 0 0 -6.19 -1.57 0 0 -1.7 5.62 0 0 1.7 -1.57 0 0 6.19 1.57 0 0 1.7zm10.5 -0.55c-0.43,0.17 -1,0.33 -1.71,0.5 -0.71,0.16 -1.42,0.25 -2.12,0.25 -1.63,0 -2.91,-0.44 -3.83,-1.33 -0.92,-0.89 -1.39,-2.11 -1.39,-3.68 0,-1.49 0.47,-2.69 1.4,-3.6 0.93,-0.91 2.23,-1.37 3.9,-1.37 0.63,0 1.23,0.06 1.8,0.17 0.57,0.11 1.21,0.34 1.91,0.68l0 2.25 -0.28 0c-0.12,-0.09 -0.29,-0.22 -0.53,-0.38 -0.23,-0.17 -0.46,-0.31 -0.67,-0.42 -0.25,-0.14 -0.54,-0.26 -0.87,-0.35 -0.33,-0.1 -0.69,-0.15 -1.06,-0.15 -0.44,0 -0.84,0.06 -1.19,0.19 -0.36,0.13 -0.68,0.33 -0.96,0.59 -0.27,0.26 -0.48,0.58 -0.64,0.98 -0.16,0.4 -0.24,0.86 -0.24,1.38 0,1.06 0.28,1.87 0.84,2.43 0.56,0.56 1.39,0.84 2.49,0.84 0.09,0 0.2,-0 0.31,-0.01 0.11,-0 0.22,-0.01 0.31,-0.02l0 -1.88 -1.91 0 0 -1.81 4.43 0 0 4.73zm10.94 0.55l-2.38 0 -4.07 -6.58 0 6.58 -2.27 0 0 -9.59 2.95 0 3.5 5.49 0 -5.49 2.27 0 0 9.59zm10.51 -0.71c-0.52,0.24 -1.09,0.45 -1.72,0.63 -0.62,0.18 -1.22,0.27 -1.8,0.27 -0.75,0 -1.43,-0.1 -2.06,-0.31 -0.62,-0.2 -1.15,-0.51 -1.59,-0.93 -0.44,-0.42 -0.78,-0.94 -1.02,-1.56 -0.24,-0.62 -0.36,-1.35 -0.36,-2.19 0,-1.53 0.45,-2.74 1.34,-3.63 0.89,-0.89 2.12,-1.33 3.69,-1.33 0.55,0 1.1,0.07 1.67,0.2 0.57,0.13 1.18,0.35 1.84,0.67l0 1.51 -0.12 0c-0.13,-0.1 -0.33,-0.24 -0.58,-0.41 -0.25,-0.17 -0.5,-0.31 -0.75,-0.42 -0.3,-0.13 -0.63,-0.24 -1.01,-0.33 -0.38,-0.09 -0.8,-0.13 -1.28,-0.13 -1.07,0 -1.92,0.35 -2.55,1.03 -0.62,0.69 -0.94,1.62 -0.94,2.8 0,1.24 0.33,2.21 0.98,2.9 0.65,0.69 1.54,1.03 2.67,1.03 0.41,0 0.82,-0.04 1.23,-0.12 0.41,-0.08 0.77,-0.19 1.08,-0.31l0 -2.35 -2.57 0 0 -1.12 3.83 0 0 4.12zm10.16 0.71l-1.66 0 -3.21 -3.81 -1.79 0 0 3.81 -1.27 0 0 -9.59 2.69 0c0.58,0 1.06,0.04 1.45,0.11 0.38,0.07 0.73,0.21 1.04,0.4 0.35,0.22 0.62,0.49 0.82,0.83 0.2,0.33 0.29,0.75 0.29,1.27 0,0.69 -0.17,1.27 -0.52,1.73 -0.35,0.47 -0.83,0.82 -1.44,1.05l3.61 4.19zm-2.98 -6.89c0,-0.27 -0.05,-0.52 -0.14,-0.73 -0.1,-0.21 -0.26,-0.39 -0.48,-0.54 -0.18,-0.12 -0.4,-0.21 -0.66,-0.26 -0.25,-0.05 -0.55,-0.07 -0.89,-0.07l-1.5 0 0 3.62 1.29 0c0.4,0 0.76,-0.04 1.06,-0.11 0.3,-0.07 0.55,-0.2 0.76,-0.4 0.19,-0.18 0.34,-0.39 0.43,-0.62 0.09,-0.24 0.14,-0.53 0.14,-0.89zm11.37 -1.6c0.39,0.43 0.69,0.95 0.9,1.58 0.21,0.62 0.31,1.33 0.31,2.12 0,0.79 -0.11,1.5 -0.32,2.12 -0.21,0.62 -0.51,1.15 -0.89,1.56 -0.4,0.44 -0.86,0.76 -1.4,0.98 -0.54,0.22 -1.15,0.33 -1.84,0.33 -0.67,0 -1.29,-0.11 -1.84,-0.33 -0.55,-0.22 -1.02,-0.55 -1.41,-0.97 -0.39,-0.42 -0.68,-0.95 -0.89,-1.57 -0.21,-0.62 -0.31,-1.32 -0.31,-2.12 0,-0.78 0.1,-1.48 0.31,-2.1 0.2,-0.62 0.51,-1.15 0.9,-1.59 0.38,-0.42 0.85,-0.74 1.41,-0.97 0.56,-0.22 1.17,-0.33 1.83,-0.33 0.69,0 1.3,0.11 1.85,0.34 0.55,0.22 1.01,0.55 1.39,0.96zm-0.12 3.7c0,-1.24 -0.28,-2.2 -0.84,-2.88 -0.56,-0.67 -1.32,-1.01 -2.29,-1.01 -0.97,0 -1.74,0.34 -2.3,1.01 -0.56,0.68 -0.83,1.64 -0.83,2.88 0,1.26 0.28,2.22 0.85,2.89 0.57,0.67 1.33,1 2.28,1 0.95,0 1.71,-0.33 2.28,-1 0.57,-0.67 0.85,-1.63 0.85,-2.89zm10.57 0.94c0,0.7 -0.08,1.3 -0.23,1.82 -0.15,0.52 -0.4,0.95 -0.75,1.29 -0.33,0.33 -0.72,0.57 -1.16,0.71 -0.44,0.15 -0.96,0.23 -1.55,0.23 -0.6,0 -1.13,-0.08 -1.57,-0.24 -0.45,-0.16 -0.82,-0.39 -1.13,-0.7 -0.35,-0.35 -0.6,-0.78 -0.75,-1.28 -0.15,-0.5 -0.23,-1.11 -0.23,-1.84l0 -5.74 1.28 0 0 5.8c0,0.52 0.04,0.93 0.11,1.23 0.07,0.3 0.19,0.57 0.36,0.82 0.19,0.28 0.45,0.49 0.77,0.63 0.33,0.14 0.71,0.21 1.17,0.21 0.46,0 0.85,-0.07 1.17,-0.21 0.32,-0.14 0.58,-0.35 0.77,-0.64 0.17,-0.24 0.29,-0.53 0.36,-0.84 0.07,-0.32 0.11,-0.71 0.11,-1.18l0 -5.83 1.28 0 0 5.74zm8.71 -2.84c0,0.43 -0.07,0.82 -0.22,1.18 -0.15,0.36 -0.36,0.68 -0.62,0.94 -0.33,0.33 -0.72,0.58 -1.17,0.74 -0.45,0.17 -1.02,0.25 -1.71,0.25l-1.28 0 0 3.58 -1.28 0 0 -9.59 2.6 0c0.58,0 1.06,0.05 1.46,0.15 0.4,0.1 0.75,0.25 1.06,0.45 0.37,0.25 0.65,0.55 0.85,0.91 0.2,0.36 0.3,0.83 0.3,1.39zm-1.33 0.03c0,-0.33 -0.06,-0.62 -0.17,-0.86 -0.12,-0.24 -0.29,-0.44 -0.53,-0.6 -0.21,-0.13 -0.44,-0.23 -0.71,-0.29 -0.26,-0.06 -0.6,-0.09 -1,-0.09l-1.26 0 0 3.83 1.08 0c0.51,0 0.93,-0.05 1.26,-0.14 0.32,-0.09 0.58,-0.24 0.78,-0.44 0.2,-0.2 0.35,-0.42 0.43,-0.65 0.08,-0.23 0.13,-0.48 0.13,-0.77z"/>
 </g>
</svg>
